<?xml version="1.0" standalone="no"?>
<!DOCTYPE svg PUBLIC "-//W3C//DTD SVG 20010904//EN"
 "http://www.w3.org/TR/2001/REC-SVG-20010904/DTD/svg10.dtd">
<svg version="1.0" xmlns="http://www.w3.org/2000/svg"
 width="400.000000pt" height="400.000000pt" viewBox="0 0 400.000000 400.000000"
 preserveAspectRatio="xMidYMid meet">
<metadata>
Created by potrace 1.15, written by Peter Selinger 2001-2017
</metadata>
<g transform="translate(0.000000,400.000000) scale(0.100000,-0.100000)"
fill="#000000" stroke="none">
<path d="M0 2000 l0 -2000 2000 0 2000 0 0 2000 0 2000 -2000 0 -2000 0 0
-2000z m1900 950 l0 -280 290 0 290 0 0 -90 0 -90 -290 0 -290 0 0 -662 c0
-713 3 -752 51 -805 35 -38 80 -53 156 -53 120 1 184 48 217 159 9 30 16 76
16 103 l0 48 118 0 118 0 -8 -67 c-23 -197 -118 -329 -271 -377 -114 -36 -333
-38 -437 -5 -106 34 -183 98 -220 182 -51 115 -53 137 -57 830 l-5 647 -139 0
-139 0 0 90 0 90 140 0 140 0 0 280 0 280 160 0 160 0 0 -280z"/>
</g>
</svg>
